<?xml version="1.0" standalone="no"?>
<!DOCTYPE svg PUBLIC "-//W3C//DTD SVG 20010904//EN"
 "http://www.w3.org/TR/2001/REC-SVG-20010904/DTD/svg10.dtd">
<svg version="1.0" xmlns="http://www.w3.org/2000/svg"
 width="700.000000pt" height="700.000000pt" viewBox="0 0 700.000000 700.000000"
 preserveAspectRatio="xMidYMid meet">
<metadata>
Created by potrace 1.11, written by Peter Selinger 2001-2013
</metadata>
<g transform="translate(0.000000,700.000000) scale(0.100000,-0.100000)"
fill="#000000" stroke="none">
<path d="M725 6929 c-184 -18 -403 -141 -519 -292 -182 -238 -215 -542 -88
-817 89 -193 256 -345 456 -417 125 -44 126 -44 1266 -49 1146 -4 1599 -10
1608 -18 3 -3 -3 -81 -13 -173 -9 -93 -19 -186 -21 -208 -1 -22 -10 -119 -18
-215 -15 -166 -20 -215 -31 -320 -10 -88 -13 -126 -21 -220 -4 -52 -8 -97 -9
-100 -1 -3 -5 -43 -9 -90 -4 -47 -9 -103 -11 -125 -8 -77 -36 -371 -40 -430
-3 -33 -7 -78 -10 -100 -23 -195 -25 -280 -9 -383 51 -324 213 -583 499 -799
117 -88 302 -187 445 -237 l95 -34 3 -186 c2 -177 3 -186 22 -186 17 0 18 -4
10 -26 -6 -14 -10 -27 -10 -30 0 -2 98 -4 218 -4 203 0 220 1 236 19 10 11 30
25 46 31 27 11 31 10 56 -19 23 -28 72 -61 89 -61 3 0 5 17 5 38 0 20 5 53 10
74 9 33 15 37 61 48 118 28 259 -32 272 -117 4 -21 18 -62 33 -90 l26 -53 523
0 523 0 7 39 c5 29 1 52 -13 83 -22 50 -38 66 -89 83 -30 11 -39 19 -44 45
-21 100 -138 150 -230 98 -22 -12 -39 -25 -39 -30 0 -4 -7 -8 -15 -8 -9 0 -15
-9 -15 -25 l0 -25 -181 0 -182 0 6 36 c3 20 13 47 22 60 21 32 93 84 116 84
12 0 21 10 24 28 25 119 74 197 160 248 240 145 434 376 570 682 117 263 134
347 190 972 33 358 42 449 55 580 18 173 19 190 30 305 40 435 60 645 64 680
3 22 8 72 11 110 3 39 10 113 15 165 5 52 14 145 20 205 6 61 13 130 16 155
10 102 15 154 29 328 8 101 15 203 15 228 l0 44 -807 -2 -808 -3 -6 -55 c-4
-30 -9 -86 -12 -125 -8 -105 -55 -592 -72 -745 -8 -74 -19 -187 -25 -250 -6
-63 -13 -131 -15 -150 -2 -19 -6 -62 -9 -95 -3 -33 -15 -154 -26 -270 -25
-259 -27 -281 -40 -430 -6 -66 -13 -136 -15 -155 -2 -19 -7 -75 -11 -125 -5
-49 -8 -92 -9 -95 -1 -3 -5 -48 -9 -100 -4 -52 -9 -106 -11 -120 -2 -14 -7
-52 -9 -85 -3 -33 -8 -80 -11 -105 -7 -70 -14 -141 -30 -325 -9 -93 -17 -188
-20 -210 -2 -22 -7 -69 -10 -105 -12 -144 -16 -186 -20 -210 -2 -14 -7 -65
-11 -113 -3 -49 -11 -141 -18 -205 -11 -114 -11 -118 12 -169 19 -42 22 -66
20 -125 l-3 -73 -340 0 -340 0 0 91 c0 84 2 94 28 127 35 46 74 67 127 67 l40
0 0 90 0 90 156 0 c88 0 164 4 175 10 17 10 19 22 19 120 0 94 -3 112 -19 127
-18 17 -18 24 -5 158 7 77 18 194 24 260 6 66 12 138 15 160 2 22 7 72 10 110
3 39 8 88 10 110 2 22 9 96 15 165 6 69 15 161 20 205 5 44 12 107 14 140 11
122 36 391 41 425 2 19 7 69 10 110 4 41 15 165 26 275 10 110 21 227 24 260
3 33 8 80 10 105 10 86 22 214 30 295 2 28 13 138 24 245 32 311 33 344 21
425 -51 336 -276 587 -602 669 l-94 24 -1819 4 c-1001 1 -1847 0 -1880 -3z
m6079 -636 c-3 -38 -8 -75 -10 -83 -1 -8 -3 -24 -3 -35 -1 -20 -6 -21 -215
-20 -203 0 -216 -1 -243 -21 -25 -19 -29 -29 -24 -64 3 -28 52 -35 256 -40
l210 -5 -3 -65 c-2 -36 -7 -81 -11 -100 l-7 -35 -219 0 c-121 -1 -275 1 -343
3 l-123 3 5 27 c3 15 8 62 11 105 7 77 7 77 36 77 16 0 29 2 29 4 0 2 -9 23
-20 47 -48 107 2 227 108 259 15 5 150 9 300 9 l274 1 -8 -67z m-790 -564 c-6
-84 -16 -174 -20 -181 -6 -10 -202 -9 -208 1 -4 7 13 169 19 189 4 9 31 12
107 10 86 -3 103 -6 102 -19z m737 16 c4 -3 -15 -183 -20 -203 -1 -1 -153 -1
-338 0 l-338 3 3 50 c5 78 12 137 18 146 5 9 667 13 675 4z m-31 -292 c4 -4 2
-51 -4 -103 l-11 -95 -230 1 c-126 1 -340 2 -474 3 l-244 1 7 83 c4 45 10 93
13 106 l6 23 465 -5 c255 -3 468 -9 472 -14z m-463 -287 c5 -81 46 -96 270
-96 l163 0 -6 -62 c-4 -35 -10 -81 -13 -103 l-7 -40 -336 -3 c-293 -2 -337 0
-342 13 -5 14 9 166 19 193 2 6 12 12 21 12 13 0 14 3 5 14 -17 21 -32 78 -25
99 5 16 17 17 127 15 l122 -3 2 -39z m52 -486 c58 -77 108 -140 112 -140 15 0
21 72 10 112 -7 22 -30 59 -52 83 -26 28 -35 44 -27 47 17 6 107 12 183 13
l59 0 31 -59 c27 -54 30 -69 30 -151 0 -86 -2 -94 -35 -149 -96 -161 -338
-238 -508 -161 -144 65 -207 212 -155 359 22 60 90 133 153 163 82 40 83 39
199 -117z m106 -500 c43 -16 75 -37 112 -75 62 -63 77 -109 71 -211 -8 -120
-70 -208 -188 -263 l-55 -26 -376 -3 -375 -3 4 63 c2 35 7 81 11 103 l7 40
141 3 142 3 -9 25 c-15 38 -12 127 6 169 36 88 149 170 266 195 65 14 176 4
243 -20z m-1195 -2305 c39 -20 54 -49 40 -75 -13 -24 -42 -26 -75 -4 -31 20
-60 6 -80 -41 -11 -27 -20 -35 -39 -35 -34 0 -48 28 -36 70 24 84 115 124 190
85z m218 -115 c42 -26 58 -60 43 -89 -15 -28 -42 -27 -75 4 -34 31 -37 31 -66
0 -34 -36 -74 -31 -77 10 -7 76 99 121 175 75z"/>
<path d="M6152 4568 c-22 -22 -14 -75 14 -97 28 -22 86 -37 103 -27 9 6 -85
136 -99 136 -3 0 -11 -5 -18 -12z"/>
<path d="M6185 3982 c-42 -26 -56 -46 -57 -79 -2 -65 53 -107 120 -92 102 23
137 122 59 169 -40 25 -83 25 -122 2z"/>
<path d="M1627 4987 c-22 -236 -44 -459 -51 -512 -3 -22 -13 -116 -21 -210 -9
-93 -18 -190 -20 -215 -6 -54 -31 -321 -46 -475 -5 -60 -12 -126 -14 -145 -2
-19 -7 -69 -10 -110 -3 -41 -10 -115 -15 -165 -5 -49 -12 -115 -15 -145 -2
-30 -9 -95 -15 -145 -10 -92 -44 -439 -56 -576 -6 -70 -5 -77 12 -83 11 -3
341 -5 734 -3 l715 2 7 65 c3 36 9 97 12 135 4 39 8 90 11 115 9 87 14 137 35
355 11 121 25 261 30 310 5 50 19 187 30 305 24 243 28 286 35 350 3 25 7 70
10 100 5 59 14 149 20 216 3 22 16 160 30 305 23 238 28 291 40 394 11 97 27
306 24 309 -2 2 -333 6 -734 9 l-731 5 -17 -191z"/>
<path d="M4479 1051 c-46 -15 -69 -32 -69 -50 0 -12 -21 -31 -57 -52 -205
-122 -249 -391 -91 -564 35 -38 73 -66 126 -92 l76 -38 245 -2 c148 -2 238 1
225 6 -56 24 -93 105 -80 176 11 59 47 90 154 131 53 21 104 43 112 50 16 12
44 22 85 30 61 11 76 22 69 51 -22 98 -105 210 -189 254 -26 14 -45 32 -47 43
-2 11 -19 29 -38 40 -35 21 -113 26 -260 17 -25 -2 -88 -1 -140 3 -52 3 -107
2 -121 -3z"/>
</g>
</svg>
